<?xml version="1.0" encoding="UTF-8"?>
<svg width="28px" height="28px" viewBox="0 0 28 28" version="1.1" xmlns="http://www.w3.org/2000/svg" xmlns:xlink="http://www.w3.org/1999/xlink">
    <!-- Generator: Sketch 55.1 (78136) - https://sketchapp.com -->
    <title>Icons/Search/White</title>
    <desc>Created with Sketch.</desc>
    <g id="Icons/Search/White" stroke="none" stroke-width="1" fill="none" fill-rule="evenodd">
        <path d="M28,25.9740424 L25.9740424,28 L19.8947368,21.9221272 L21.9206944,19.8947368 L28,25.9740424 Z M11.0526316,19.8947368 C6.17768421,19.8947368 2.21052632,15.9290526 2.21052632,11.0526316 C2.21052632,6.17768421 6.17768421,2.21052632 11.0526316,2.21052632 C15.9275789,2.21052632 19.8947368,6.17768421 19.8947368,11.0526316 C19.8947368,15.9290526 15.9275789,19.8947368 11.0526316,19.8947368 L11.0526316,19.8947368 Z M11.0526316,0 C4.94881579,0 0,4.94881579 0,11.0526316 C0,17.1564474 4.94881579,22.1052632 11.0526316,22.1052632 C17.1564474,22.1052632 22.1052632,17.1564474 22.1052632,11.0526316 C22.1052632,4.94881579 17.1564474,0 11.0526316,0 L11.0526316,0 Z" id="search_left-[#1504]-copy-2" fill="#FFFFFF"></path>
    </g>
</svg>