<?xml version="1.0" encoding="UTF-8"?>
<svg width="72px" height="59px" viewBox="0 0 72 59" version="1.1" xmlns="http://www.w3.org/2000/svg" xmlns:xlink="http://www.w3.org/1999/xlink">
    <!-- Generator: Sketch 55.1 (78136) - https://sketchapp.com -->
    <title>Logo/Esplanade</title>
    <desc>Created with Sketch.</desc>
    <g id="Logo/Esplanade" stroke="none" stroke-width="1" fill="none" fill-rule="evenodd">
        <g id="Logo" fill="#FEFEFE">
            <g id="Group-19">
                <polygon id="Fill-1" points="63.3904902 28.392023 72 41.4134615 67.504354 26.4969802 49.8461538 14.1826923"></polygon>
                <polygon id="Fill-2" points="64.2461538 28.537354 72 41.4134615 67.9511577 26.6634615"></polygon>
                <polygon id="Fill-3" points="57.6355171 9.53722811 64.2461538 23.2596154 54.7728299 11.556434 42.0923077 5.10576923"></polygon>
                <polygon id="Fill-4" points="57.2894654 8.50961538 64.2461538 22.125 54.2769231 10.5130762"></polygon>
                <polygon id="Fill-5" points="54.2769231 32.4577509 52.2530799 53.8942308 44.1947317 36.8000845 32.1230769 26.6634615"></polygon>
                <polygon id="Fill-6" points="54.2769231 32.3365385 52.275755 53.8942308 44.3076923 36.7034258"></polygon>
                <polygon id="Fill-7" points="66.1245481 43.2917812 71.8006602 57.2980769 72 41.1645428 54.2769231 32.3365385"></polygon>
                <polygon id="Fill-8" points="66.4615385 43.6574808 71.8120935 58.4326923 72 41.4134615"></polygon>
                <polygon id="Fill-9" points="28.6193483 11.9134615 33.2307692 26.6634615 22.6203539 17.5625933 11.0769231 12.9798644"></polygon>
                <polygon id="Fill-10" points="28.4165982 11.9134615 33.2307692 26.6634615 22.1538462 17.5625933"></polygon>
                <polygon id="Fill-11" points="32.1230769 27.7687744 29.2821631 47.0865385 22.0430252 35.017648 13.2923077 25.5288462"></polygon>
                <polygon id="Fill-12" points="33.2307692 26.6634615 30.1089019 47.0865385 22.1538462 34.3270971"></polygon>
                <polygon id="Fill-13" points="50.2014811 14.6013608 54.2769231 32.3365385 43.2384419 19.5490873 28.8 11.9134615"></polygon>
                <polygon id="Fill-14" points="50.1872882 14.1826923 54.2769231 32.3365385 43.2 19.2472181"></polygon>
                <polygon id="Fill-15" points="34.4272721 5.27065135 49.8461538 14.1826923 37.4801526 2.30321559 17.7230769 0.567307692"></polygon>
                <polygon id="Fill-16" points="38.2972996 1.70192308 49.8461538 14.1826923 35.4461538 4.81938444"></polygon>
                <polygon id="Fill-17" points="18.3298057 0.567307692 0 3.31962657 15.1485119 4.75605744 28.8 11.9134615"></polygon>
                <polygon id="Fill-18" points="18.605284 0.567307692 15.5076923 4.75605744 28.8 11.9134615"></polygon>
            </g>
        </g>
    </g>
</svg>