<?xml version="1.0" encoding="utf-8"?>
<!-- Generator: Adobe Illustrator 23.0.3, SVG Export Plug-In . SVG Version: 6.00 Build 0)  -->
<svg version="1.1" id="Layer_1" xmlns="http://www.w3.org/2000/svg" xmlns:xlink="http://www.w3.org/1999/xlink" x="0px" y="0px"
	 viewBox="0 0 142.5 13.3" style="enable-background:new 0 0 142.5 13.3;" xml:space="preserve">
<style type="text/css">
	.st0{enable-background:new    ;}
	.st1{fill:#FFFFFF;}
</style>
<title>RESEARCHERS</title>
<desc>Created with Sketch.</desc>
<g id="Desktop">
	<g id="Research-Landing" transform="translate(-324.000000, -39.000000)">
		<g class="st0">
			<path class="st1" d="M324,52.1V39.2h5.5c1.4,0,2.4,0.1,3,0.3s1.1,0.6,1.5,1.2s0.6,1.3,0.6,2c0,1-0.3,1.8-0.9,2.4s-1.4,1-2.5,1.2
				c0.6,0.3,1,0.7,1.4,1.1s0.9,1.1,1.5,2.1l1.6,2.5h-3.1l-1.9-2.8c-0.7-1-1.1-1.6-1.4-1.9s-0.5-0.4-0.8-0.5
				c-0.3-0.1-0.7-0.1-1.3-0.1h-0.5v5.4H324z M326.6,44.7h1.9c1.2,0,2-0.1,2.3-0.2s0.6-0.3,0.7-0.5s0.3-0.6,0.3-1
				c0-0.4-0.1-0.8-0.3-1.1c-0.2-0.3-0.6-0.4-1-0.5c-0.2,0-0.8,0-1.9,0h-2V44.7z"/>
			<path class="st1" d="M337.7,52.1V39.2h9.6v2.2h-7v2.9h6.5v2.2h-6.5v3.5h7.2v2.2H337.7z"/>
			<path class="st1" d="M349.7,47.9l2.5-0.2c0.2,0.8,0.5,1.5,0.9,1.9s1.1,0.6,1.9,0.6c0.8,0,1.5-0.2,1.9-0.5s0.6-0.8,0.6-1.2
				c0-0.3-0.1-0.6-0.3-0.8s-0.5-0.4-0.9-0.6c-0.3-0.1-1-0.3-2.1-0.6c-1.4-0.3-2.4-0.8-2.9-1.3c-0.8-0.7-1.2-1.6-1.2-2.6
				c0-0.7,0.2-1.3,0.6-1.8c0.4-0.6,0.9-1,1.6-1.3s1.5-0.4,2.5-0.4c1.6,0,2.8,0.4,3.7,1.1s1.2,1.7,1.3,2.8l-2.6,0.1
				c-0.1-0.7-0.4-1.1-0.7-1.4c-0.4-0.3-0.9-0.4-1.6-0.4c-0.8,0-1.3,0.2-1.8,0.5c-0.3,0.2-0.4,0.5-0.4,0.8c0,0.3,0.1,0.6,0.4,0.8
				c0.3,0.3,1.1,0.6,2.4,0.9s2.2,0.6,2.8,0.9c0.6,0.3,1.1,0.8,1.4,1.3c0.3,0.6,0.5,1.2,0.5,2.1c0,0.7-0.2,1.4-0.6,2.1
				s-1,1.1-1.7,1.4c-0.8,0.3-1.7,0.5-2.8,0.5c-1.6,0-2.9-0.4-3.8-1.1S349.8,49.4,349.7,47.9z"/>
			<path class="st1" d="M363,52.1V39.2h9.6v2.2h-7v2.9h6.5v2.2h-6.5v3.5h7.2v2.2H363z"/>
			<path class="st1" d="M387.3,52.1h-2.8l-1.1-2.9h-5.2l-1.1,2.9h-2.8l5-12.9h2.8L387.3,52.1z M382.5,47l-1.8-4.8L379,47H382.5z"/>
			<path class="st1" d="M389.3,52.1V39.2h5.5c1.4,0,2.4,0.1,3,0.3c0.6,0.2,1.1,0.6,1.5,1.2s0.6,1.3,0.6,2c0,1-0.3,1.8-0.9,2.4
				s-1.4,1-2.5,1.2c0.6,0.3,1,0.7,1.4,1.1c0.4,0.4,0.9,1.1,1.5,2.1l1.6,2.5h-3.1l-1.9-2.8c-0.7-1-1.1-1.6-1.4-1.9s-0.5-0.4-0.8-0.5
				c-0.3-0.1-0.7-0.1-1.3-0.1h-0.5v5.4H389.3z M391.9,44.7h1.9c1.2,0,2-0.1,2.3-0.2s0.6-0.3,0.7-0.5s0.3-0.6,0.3-1
				c0-0.4-0.1-0.8-0.3-1.1c-0.2-0.3-0.6-0.4-1-0.5c-0.2,0-0.8,0-1.9,0h-2V44.7z"/>
			<path class="st1" d="M411.2,47.4l2.5,0.8c-0.4,1.4-1,2.5-1.9,3.1c-0.9,0.7-2,1-3.4,1c-1.7,0-3.1-0.6-4.2-1.8
				c-1.1-1.2-1.7-2.8-1.7-4.8c0-2.1,0.6-3.8,1.7-5c1.1-1.2,2.6-1.8,4.4-1.8c1.6,0,2.9,0.5,3.8,1.4c0.6,0.6,1,1.3,1.3,2.4l-2.6,0.6
				c-0.2-0.7-0.5-1.2-1-1.6c-0.5-0.4-1.1-0.6-1.8-0.6c-1,0-1.7,0.3-2.3,1c-0.6,0.7-0.9,1.8-0.9,3.3c0,1.6,0.3,2.8,0.9,3.5
				s1.3,1,2.3,1c0.7,0,1.3-0.2,1.8-0.7S411,48.3,411.2,47.4z"/>
			<path class="st1" d="M416.7,52.1V39.2h2.6v5.1h5.1v-5.1h2.6v12.9h-2.6v-5.6h-5.1v5.6H416.7z"/>
			<path class="st1" d="M430.3,52.1V39.2h9.6v2.2h-7v2.9h6.5v2.2h-6.5v3.5h7.2v2.2H430.3z"/>
			<path class="st1" d="M443,52.1V39.2h5.5c1.4,0,2.4,0.1,3,0.3c0.6,0.2,1.1,0.6,1.5,1.2s0.6,1.3,0.6,2c0,1-0.3,1.8-0.9,2.4
				s-1.4,1-2.5,1.2c0.6,0.3,1,0.7,1.4,1.1c0.4,0.4,0.9,1.1,1.5,2.1l1.6,2.5h-3.1l-1.9-2.8c-0.7-1-1.1-1.6-1.4-1.9s-0.5-0.4-0.8-0.5
				c-0.3-0.1-0.7-0.1-1.3-0.1h-0.5v5.4H443z M445.6,44.7h1.9c1.2,0,2-0.1,2.3-0.2s0.6-0.3,0.7-0.5s0.3-0.6,0.3-1
				c0-0.4-0.1-0.8-0.3-1.1c-0.2-0.3-0.6-0.4-1-0.5c-0.2,0-0.8,0-1.9,0h-2V44.7z"/>
			<path class="st1" d="M456,47.9l2.5-0.2c0.2,0.8,0.5,1.5,0.9,1.9c0.5,0.4,1.1,0.6,1.9,0.6c0.8,0,1.5-0.2,1.9-0.5
				c0.4-0.4,0.6-0.8,0.6-1.2c0-0.3-0.1-0.6-0.3-0.8c-0.2-0.2-0.5-0.4-0.9-0.6c-0.3-0.1-1-0.3-2.1-0.6c-1.4-0.3-2.4-0.8-2.9-1.3
				c-0.8-0.7-1.2-1.6-1.2-2.6c0-0.7,0.2-1.3,0.6-1.8c0.4-0.6,0.9-1,1.6-1.3c0.7-0.3,1.5-0.4,2.5-0.4c1.6,0,2.8,0.4,3.7,1.1
				c0.8,0.7,1.2,1.7,1.3,2.8l-2.6,0.1c-0.1-0.7-0.3-1.1-0.7-1.4c-0.4-0.3-0.9-0.4-1.6-0.4c-0.8,0-1.3,0.2-1.8,0.5
				c-0.3,0.2-0.4,0.5-0.4,0.8c0,0.3,0.1,0.6,0.4,0.8c0.3,0.3,1.1,0.6,2.4,0.9s2.2,0.6,2.8,0.9c0.6,0.3,1.1,0.8,1.4,1.3
				c0.3,0.6,0.5,1.2,0.5,2.1c0,0.7-0.2,1.4-0.6,2.1s-1,1.1-1.7,1.4c-0.8,0.3-1.7,0.5-2.8,0.5c-1.6,0-2.9-0.4-3.8-1.1
				S456.2,49.4,456,47.9z"/>
		</g>
	</g>
</g>
</svg>
