<?xml version="1.0" encoding="utf-8"?>
<!-- Generator: Adobe Illustrator 23.0.3, SVG Export Plug-In . SVG Version: 6.00 Build 0)  -->
<svg version="1.1" id="Layer_1" xmlns="http://www.w3.org/2000/svg" xmlns:xlink="http://www.w3.org/1999/xlink" x="0px" y="0px"
	 viewBox="0 0 91.5 13.3" style="enable-background:new 0 0 91.5 13.3;" xml:space="preserve">
<style type="text/css">
	.st0{fill:#FFFFFF;}
</style>
<title>SCHOOLS</title>
<desc>Created with Sketch.</desc>
<g id="Desktop">
	<g transform="translate(-323.000000, -39.000000)">
		<g>
			<path class="st0" d="M323,47.9l2.5-0.2c0.2,0.8,0.5,1.5,0.9,1.9s1.1,0.6,1.9,0.6c0.8,0,1.5-0.2,1.9-0.5s0.6-0.8,0.6-1.2
				c0-0.3-0.1-0.6-0.3-0.8s-0.5-0.4-0.9-0.6c-0.3-0.1-1-0.3-2.1-0.6c-1.4-0.3-2.4-0.8-2.9-1.3c-0.8-0.7-1.2-1.6-1.2-2.6
				c0-0.7,0.2-1.3,0.6-1.8c0.4-0.6,0.9-1,1.6-1.3s1.5-0.4,2.5-0.4c1.6,0,2.8,0.4,3.7,1.1s1.2,1.7,1.3,2.8l-2.6,0.1
				c-0.1-0.7-0.4-1.1-0.7-1.4c-0.4-0.3-0.9-0.4-1.6-0.4c-0.8,0-1.3,0.2-1.8,0.5c-0.3,0.2-0.4,0.5-0.4,0.8c0,0.3,0.1,0.6,0.4,0.8
				c0.3,0.3,1.1,0.6,2.4,0.9s2.2,0.6,2.8,0.9c0.6,0.3,1.1,0.8,1.4,1.3c0.3,0.6,0.5,1.2,0.5,2.1c0,0.7-0.2,1.4-0.6,2.1
				s-1,1.1-1.7,1.4c-0.8,0.3-1.7,0.5-2.8,0.5c-1.6,0-2.9-0.4-3.8-1.1S323.2,49.4,323,47.9z"/>
			<path class="st0" d="M344.6,47.4l2.5,0.8c-0.4,1.4-1,2.5-1.9,3.1c-0.9,0.7-2,1-3.4,1c-1.7,0-3.1-0.6-4.2-1.8
				c-1.1-1.2-1.7-2.8-1.7-4.8c0-2.1,0.6-3.8,1.7-5c1.1-1.2,2.6-1.8,4.4-1.8c1.6,0,2.9,0.5,3.8,1.4c0.6,0.6,1,1.3,1.3,2.4l-2.6,0.6
				c-0.2-0.7-0.5-1.2-1-1.6s-1.1-0.6-1.8-0.6c-1,0-1.7,0.3-2.3,1s-0.9,1.8-0.9,3.3c0,1.6,0.3,2.8,0.9,3.5s1.3,1,2.3,1
				c0.7,0,1.3-0.2,1.8-0.7S344.4,48.3,344.6,47.4z"/>
			<path class="st0" d="M350,52.1V39.2h2.6v5.1h5.1v-5.1h2.6v12.9h-2.6v-5.6h-5.1v5.6H350z"/>
			<path class="st0" d="M363.1,45.7c0-1.3,0.2-2.4,0.6-3.3c0.3-0.7,0.7-1.2,1.2-1.8s1.1-0.9,1.7-1.2c0.8-0.3,1.7-0.5,2.8-0.5
				c1.9,0,3.4,0.6,4.6,1.8s1.7,2.8,1.7,4.9c0,2.1-0.6,3.7-1.7,4.9c-1.1,1.2-2.6,1.8-4.5,1.8c-1.9,0-3.4-0.6-4.6-1.8
				C363.7,49.4,363.1,47.8,363.1,45.7z M365.8,45.7c0,1.5,0.3,2.6,1,3.3s1.5,1.1,2.6,1.1s1.9-0.4,2.6-1.1c0.7-0.7,1-1.9,1-3.4
				c0-1.5-0.3-2.6-1-3.3s-1.5-1.1-2.6-1.1s-1.9,0.4-2.6,1.1S365.8,44.2,365.8,45.7z"/>
			<path class="st0" d="M377.8,45.7c0-1.3,0.2-2.4,0.6-3.3c0.3-0.7,0.7-1.2,1.2-1.8s1.1-0.9,1.7-1.2c0.8-0.3,1.7-0.5,2.8-0.5
				c1.9,0,3.4,0.6,4.6,1.8s1.7,2.8,1.7,4.9c0,2.1-0.6,3.7-1.7,4.9c-1.1,1.2-2.6,1.8-4.5,1.8c-1.9,0-3.4-0.6-4.6-1.8
				C378.4,49.4,377.8,47.8,377.8,45.7z M380.5,45.7c0,1.5,0.3,2.6,1,3.3s1.5,1.1,2.6,1.1s1.9-0.4,2.6-1.1c0.7-0.7,1-1.9,1-3.4
				c0-1.5-0.3-2.6-1-3.3s-1.5-1.1-2.6-1.1s-1.9,0.4-2.6,1.1S380.5,44.2,380.5,45.7z"/>
			<path class="st0" d="M393.1,52.1V39.3h2.6v10.6h6.5v2.2H393.1z"/>
			<path class="st0" d="M404,47.9l2.5-0.2c0.2,0.8,0.5,1.5,0.9,1.9s1.1,0.6,1.9,0.6c0.8,0,1.5-0.2,1.9-0.5s0.6-0.8,0.6-1.2
				c0-0.3-0.1-0.6-0.3-0.8s-0.5-0.4-0.9-0.6c-0.3-0.1-1-0.3-2.1-0.6c-1.4-0.3-2.4-0.8-2.9-1.3c-0.8-0.7-1.2-1.6-1.2-2.6
				c0-0.7,0.2-1.3,0.6-1.8c0.4-0.6,0.9-1,1.6-1.3s1.5-0.4,2.5-0.4c1.6,0,2.8,0.4,3.7,1.1s1.2,1.7,1.3,2.8l-2.6,0.1
				c-0.1-0.7-0.4-1.1-0.7-1.4c-0.4-0.3-0.9-0.4-1.6-0.4c-0.8,0-1.3,0.2-1.8,0.5c-0.3,0.2-0.4,0.5-0.4,0.8c0,0.3,0.1,0.6,0.4,0.8
				c0.3,0.3,1.1,0.6,2.4,0.9s2.2,0.6,2.8,0.9c0.6,0.3,1.1,0.8,1.4,1.3c0.3,0.6,0.5,1.2,0.5,2.1c0,0.7-0.2,1.4-0.6,2.1
				s-1,1.1-1.7,1.4c-0.8,0.3-1.7,0.5-2.8,0.5c-1.6,0-2.9-0.4-3.8-1.1S404.2,49.4,404,47.9z"/>
		</g>
	</g>
</g>
</svg>
