<?xml version="1.0" encoding="UTF-8"?>
<svg width="158px" height="59px" viewBox="0 0 158 59" version="1.1" xmlns="http://www.w3.org/2000/svg" xmlns:xlink="http://www.w3.org/1999/xlink">
    <!-- Generator: Sketch 55.1 (78136) - https://sketchapp.com -->
    <title>Group 3</title>
    <desc>Created with Sketch.</desc>
    <defs>
        <polygon id="path-1" points="0.139177778 0.189352679 59.9322222 0.189352679 59.9322222 24.9998438 0.139177778 24.9998438"></polygon>
    </defs>
    <g id="Desktop" stroke="none" stroke-width="1" fill="none" fill-rule="evenodd">
        <g id="Homepage---People-(all)" transform="translate(-128.000000, -18.000000)">
            <g id="Top-Navigation" transform="translate(54.000000, 0.000000)">
                <g id="Group-3" transform="translate(74.000000, 18.000000)">
                    <g id="Logo/Esplanade" fill="#FEFEFE">
                        <g id="Logo">
                            <g id="Group-19">
                                <polygon id="Fill-1" points="63.3904902 28.392023 72 41.4134615 67.504354 26.4969802 49.8461538 14.1826923"></polygon>
                                <polygon id="Fill-2" points="64.2461538 28.537354 72 41.4134615 67.9511577 26.6634615"></polygon>
                                <polygon id="Fill-3" points="57.6355171 9.53722811 64.2461538 23.2596154 54.7728299 11.556434 42.0923077 5.10576923"></polygon>
                                <polygon id="Fill-4" points="57.2894654 8.50961538 64.2461538 22.125 54.2769231 10.5130762"></polygon>
                                <polygon id="Fill-5" points="54.2769231 32.4577509 52.2530799 53.8942308 44.1947317 36.8000845 32.1230769 26.6634615"></polygon>
                                <polygon id="Fill-6" points="54.2769231 32.3365385 52.275755 53.8942308 44.3076923 36.7034258"></polygon>
                                <polygon id="Fill-7" points="66.1245481 43.2917812 71.8006602 57.2980769 72 41.1645428 54.2769231 32.3365385"></polygon>
                                <polygon id="Fill-8" points="66.4615385 43.6574808 71.8120935 58.4326923 72 41.4134615"></polygon>
                                <polygon id="Fill-9" points="28.6193483 11.9134615 33.2307692 26.6634615 22.6203539 17.5625933 11.0769231 12.9798644"></polygon>
                                <polygon id="Fill-10" points="28.4165982 11.9134615 33.2307692 26.6634615 22.1538462 17.5625933"></polygon>
                                <polygon id="Fill-11" points="32.1230769 27.7687744 29.2821631 47.0865385 22.0430252 35.017648 13.2923077 25.5288462"></polygon>
                                <polygon id="Fill-12" points="33.2307692 26.6634615 30.1089019 47.0865385 22.1538462 34.3270971"></polygon>
                                <polygon id="Fill-13" points="50.2014811 14.6013608 54.2769231 32.3365385 43.2384419 19.5490873 28.8 11.9134615"></polygon>
                                <polygon id="Fill-14" points="50.1872882 14.1826923 54.2769231 32.3365385 43.2 19.2472181"></polygon>
                                <polygon id="Fill-15" points="34.4272721 5.27065135 49.8461538 14.1826923 37.4801526 2.30321559 17.7230769 0.567307692"></polygon>
                                <polygon id="Fill-16" points="38.2972996 1.70192308 49.8461538 14.1826923 35.4461538 4.81938444"></polygon>
                                <polygon id="Fill-17" points="18.3298057 0.567307692 0 3.31962657 15.1485119 4.75605744 28.8 11.9134615"></polygon>
                                <polygon id="Fill-18" points="18.605284 0.567307692 15.5076923 4.75605744 28.8 11.9134615"></polygon>
                            </g>
                        </g>
                    </g>
                    <g id="Logo/Offstage" transform="translate(94.000000, 10.000000)">
                        <g id="Group-6">
                            <path d="M14.5250265,7.08617966 L16.7697635,7.08617966 C16.8052171,6.08902981 16.9680409,5.15712422 17.2582351,4.29111533 C17.5488669,3.42510645 17.9362301,2.66849045 18.4205436,2.02083238 C18.904857,1.37360927 19.4506671,0.874925599 20.0579739,0.524998855 C20.6654995,0.175072112 21.2771832,0 21.8934628,0 C22.1576138,0 22.3952842,0.0265326679 22.6064737,0.0789455611 L22.6064737,2.2572341 L22.2630992,2.36205989 C21.6645464,2.15219083 21.162725,2.04736505 20.757635,2.04736505 C20.3000212,2.04736505 19.9301659,2.13457488 19.6485069,2.30964699 C19.3668479,2.48471911 19.1641934,2.69458816 19.0412001,2.93947164 C18.9177691,3.18457259 18.8429227,3.42510645 18.8166608,3.66129069 C18.79018,3.89747493 18.7770491,4.13800879 18.7770491,4.38289227 C18.7770491,4.82046381 18.8166608,5.31914747 18.8958842,5.87894327 C18.9751077,6.43873907 19.0499541,6.84129619 19.1202047,7.08617966 L21.9462054,7.08617966 L21.9462054,8.13595989 L19.196802,8.13595989 L19.196802,11.8359622 L16.8472361,12.8831326 L16.7439393,12.9292386 L16.7435016,8.13595989 L14.5250265,8.13595989 L14.5250265,7.08617966 Z M6.86639605,7.55854814 C5.89820685,7.55854814 5.12326156,7.78603315 4.54243558,8.24100316 C3.96139075,8.69575569 3.5387928,9.24272011 3.27464172,9.88124399 C3.01049065,10.5199853 2.84766678,11.1058789 2.78595129,11.6395769 C2.72445464,12.173275 2.69359689,12.6502106 2.69359689,13.0699487 C2.69359689,14.8722128 3.05907519,16.2675702 3.78959407,17.2560208 C4.09466996,17.6683645 4.44329686,17.9950208 4.83569361,18.2355547 L3.11947759,19 C2.8126509,18.8401515 2.51676668,18.652683 2.23160607,18.436942 C1.5713378,17.9382583 1.03428168,17.2516712 0.620656548,16.3767456 C0.206812566,15.5020375 0,14.425942 0,13.1486768 C0,11.1191452 0.615841864,9.50521954 1.84861984,8.30646491 C3.08096011,7.10814523 4.70088246,6.50876791 6.70794917,6.50876791 C7.90527356,6.50876791 8.94852806,6.68818964 9.83749382,7.04681562 C10.7268973,7.4054416 11.4530392,7.89542603 12.0163572,8.51655144 C12.5798941,9.13767685 12.9891423,9.8288311 13.2445394,10.5897967 C13.4997176,11.3507623 13.6275256,12.1515269 13.6275256,12.9912206 C13.6275256,13.470766 13.5903212,13.9294332 13.516569,14.3672222 L10.5697635,15.6805893 C10.8122485,14.932455 10.9337098,14.0712307 10.9337098,13.0962639 C10.9337098,12.5012362 10.8763713,11.8933771 10.762132,11.2722517 C10.647455,10.6511263 10.4448006,10.0560986 10.1546064,9.48760359 C9.86397459,8.91889108 9.44597247,8.45522183 8.90016237,8.09659585 C8.35435228,7.73796987 7.67635722,7.55854814 6.86639605,7.55854814 L6.86639605,7.55854814 Z M22.9187716,7.08617966 L25.1635086,7.08617966 C25.1987434,6.08902981 25.3617861,5.15712422 25.6521991,4.29111533 C25.9426121,3.42510645 26.3297564,2.66849045 26.8140699,2.02083238 C27.2983833,1.37360927 27.8441934,0.874925599 28.451719,0.524998855 C29.0590258,0.175072112 29.6707095,0 30.2869891,0 C30.5511401,0 30.7888104,0.0265326679 31,0.0789455611 L31,2.2572341 L30.6568443,2.36205989 C30.0582916,2.15219083 29.5564702,2.04736505 29.1513802,2.04736505 C28.6935475,2.04736505 28.323911,2.13457488 28.042252,2.30964699 C27.760593,2.48471911 27.5581574,2.69458816 27.4347264,2.93947164 C27.3117331,3.18457259 27.2366678,3.42510645 27.2104059,3.66129069 C27.1839252,3.89747493 27.1705754,4.13800879 27.1705754,4.38289227 C27.1705754,4.82046381 27.2104059,5.31914747 27.2894105,5.87894327 C27.3688528,6.43873907 27.4434804,6.84129619 27.5141687,7.08617966 L29.8554183,7.08617966 L25.1372467,9.18878485 L25.1370279,8.13595989 L22.9187716,8.13595989 L22.9187716,7.08617966 Z" id="Fill-1" fill="#FFFFFF"></path>
                            <g id="Group-5" transform="translate(4.000000, 14.000000)">
                                <mask id="mask-2" fill="white">
                                    <use xlink:href="#path-1"></use>
                                </mask>
                                <g id="Clip-4"></g>
                                <path d="M28.0756222,13.9808705 L28.0756222,11.0179241 C26.9671778,11.179308 26.0687333,11.3723884 25.3802889,11.596942 C24.6918444,11.8214955 24.1736222,12.0683705 23.8249556,12.3377902 C23.4762889,12.6072098 23.2440667,12.8944866 23.1276222,13.1996205 C23.0114,13.5049777 22.9531778,13.8641295 22.9531778,14.2772991 C22.9531778,15.0672545 23.1902889,15.641808 23.6640667,16.001183 C24.1376222,16.3603348 24.6607333,16.5400223 25.2327333,16.5400223 C25.9480667,16.5400223 26.6002889,16.2927009 27.1907333,15.7991741 C27.7805111,15.3054241 28.0756222,14.6993973 28.0756222,13.9808705 L28.0756222,13.9808705 Z M22.0685111,7.89337054 L21.4514,7.89337054 L21.4514,6.14225446 C22.0416222,5.65743304 22.6718444,5.26234375 23.3420667,4.95720982 C24.0127333,4.65185268 24.8305111,4.49917411 25.7960667,4.49917411 C26.4398444,4.49917411 27.0787333,4.58890625 27.7134,4.76859375 C28.3482889,4.94805804 28.9067333,5.26234375 29.3894,5.71145089 C29.7469556,6.05229911 30.0196222,6.45207589 30.2076222,6.90988839 C30.3951778,7.36792411 30.4889556,7.97417411 30.4889556,8.72841518 L30.4889556,15.7529688 C30.4978444,15.9255134 30.5109556,16.0616741 30.5291778,16.1357813 C30.6276222,16.5308705 30.9091778,16.7284152 31.3740667,16.7284152 C31.6065111,16.7284152 31.8300667,16.6833259 32.0442889,16.5935938 L32.0711778,17.3478348 C31.6778444,17.5453795 31.3382889,17.6935938 31.0522889,17.7924777 C30.7660667,17.8911384 30.4620667,17.9404688 30.1402889,17.9404688 C29.6754,17.9404688 29.2554,17.7924777 28.8798444,17.4960491 C28.5045111,17.1998438 28.2454,16.7643527 28.1022889,16.1897991 C27.5480667,16.7643527 26.9671778,17.2221652 26.3589556,17.5634598 C25.7514,17.9045313 24.9825111,18.0752902 24.0527333,18.0752902 C23.3914,18.0752902 22.8238444,17.9630134 22.3498444,17.7384598 C21.8762889,17.5139063 21.4918444,17.2221652 21.1967333,16.8630134 C20.9020667,16.5038616 20.6874,16.1179241 20.5531778,15.7047545 C20.4191778,15.291808 20.3520667,14.887567 20.3520667,14.4927009 C20.3520667,13.8103348 20.4727333,13.2444866 20.7140667,12.7956027 C20.9554,12.346942 21.2818444,11.987567 21.6929556,11.7181473 C22.1042889,11.4487277 22.5422889,11.2422545 23.0069556,11.0987277 C23.4718444,10.9549777 24.0709556,10.8022991 24.8038444,10.640692 L27.1367333,10.1290848 C27.5122889,10.0393527 27.7716222,9.89537946 27.9145111,9.69805804 C28.0576222,9.50051339 28.1289556,9.21323661 28.1289556,8.83600446 C28.1289556,7.93823661 27.8520667,7.22417411 27.2978444,6.69448661 C26.7436222,6.16479911 26.0196222,5.89984375 25.1256222,5.89984375 C24.6071778,5.89984375 24.1645111,5.96747768 23.7982889,6.10207589 C23.4316222,6.23667411 23.1365111,6.41167411 22.9134,6.62729911 C22.6898444,6.84270089 22.5154,7.05386161 22.3902889,7.26033482 C22.2651778,7.46658482 22.1578444,7.66881696 22.0685111,7.86613839 L22.0685111,7.89337054 Z M8.05028889,7.59895089 L7.7014,7.59895089 C7.61206667,7.26680804 7.50051111,6.98399554 7.36651111,6.72350446 C7.23228889,6.46301339 6.9954,6.21636161 6.65562222,5.98265625 C6.4054,5.80319196 6.12828889,5.68198661 5.82428889,5.61904018 C5.52051111,5.55631696 5.21673333,5.52484375 4.91273333,5.52484375 C4.12606667,5.52484375 3.51362222,5.71345982 3.07562222,6.09046875 C2.63762222,6.46770089 2.41851111,6.95274554 2.41851111,7.54515625 C2.41851111,7.90430804 2.49895556,8.22305804 2.65984444,8.50118304 C2.82095556,8.77975446 3.03095556,9.01301339 3.29006667,9.20185268 C3.5494,9.39024554 3.82206667,9.53845982 4.10806667,9.64604911 C4.39428889,9.75386161 4.67117778,9.84359375 4.9394,9.91546875 C5.74406667,10.1310938 6.36517778,10.3150223 6.80317778,10.4679241 C7.24117778,10.6203795 7.65251111,10.8268527 8.03673333,11.0873438 C8.42117778,11.3476116 8.72051111,11.6933705 8.93517778,12.1243973 C9.14984444,12.5552009 9.25695556,13.0940402 9.25695556,13.740692 C9.25695556,14.279308 9.15851111,14.804308 8.96184444,15.3161384 C8.7654,15.8279688 8.4614,16.290692 8.05028889,16.7034152 C7.63895556,17.1165848 7.10251111,17.4487277 6.44117778,17.700067 C5.77962222,17.9516295 5.00184444,18.0772991 4.10806667,18.0772991 C3.17851111,18.0772991 2.36517778,17.9471652 1.66762222,17.6866741 C0.970511111,17.4264063 0.460955556,17.1795313 0.139177778,16.9458259 L0.756066667,14.7911384 L1.07784444,14.7103348 L1.10473333,14.7641295 C1.2474,15.1052009 1.4174,15.4152455 1.61428889,15.6933705 C1.81095556,15.971942 2.11473333,16.2364509 2.52562222,16.4880134 C3.09806667,16.829308 3.75051111,16.9998438 4.48362222,16.9998438 C5.25228889,16.9998438 5.89584444,16.8112277 6.41428889,16.4339955 C6.93273333,16.0569866 7.19184444,15.509442 7.19184444,14.7911384 C7.19184444,14.413683 7.1294,14.0996205 7.00451111,13.8482813 C6.87917778,13.5967188 6.67806667,13.381317 6.40095556,13.2018527 C6.12384444,13.0221652 5.77517778,12.8516295 5.35517778,12.6900223 C4.93495556,12.528192 4.30473333,12.3127902 3.46451111,12.0433705 C3.08917778,11.9179241 2.74051111,11.7739509 2.41851111,11.612567 C2.09695556,11.4509598 1.77962222,11.2308705 1.46673333,10.9527455 C1.15384444,10.6743973 0.898955556,10.3286384 0.702288889,9.91546875 C0.505844444,9.50274554 0.407177778,9.01770089 0.407177778,8.46100446 C0.407177778,8.02997768 0.483177778,7.58555804 0.6354,7.12752232 C0.787177778,6.66970982 1.0374,6.23845982 1.38606667,5.83466518 C1.73495556,5.43064732 2.21295556,5.09850446 2.82095556,4.83801339 C3.42873333,4.57752232 4.17073333,4.44738839 5.04651111,4.44738839 C5.85117778,4.44738839 6.52162222,4.53265625 7.05784444,4.70341518 C7.59428889,4.87395089 8.10384444,5.08488839 8.58651111,5.33622768 L8.05028889,7.59895089 Z M34.1594,8.81122768 C34.1594,7.42841518 34.6554,6.35095982 35.6476222,5.57863839 C36.6398444,4.80631696 37.8867333,4.42060268 39.3885111,4.42060268 C40.0682889,4.42060268 40.6669556,4.46546875 41.1854,4.55520089 C41.8827333,4.68087054 42.3876222,4.75720982 42.7007333,4.78421875 C43.0136222,4.81122768 43.4380667,4.82439732 43.9745111,4.82439732 C44.4571778,4.82439732 44.8325111,4.81993304 45.1007333,4.81122768 C45.3689556,4.80207589 45.8069556,4.77060268 46.4147333,4.71680804 C46.4147333,4.77060268 46.4058444,4.84270089 46.3880667,4.93243304 C46.3520667,5.14783482 46.3520667,5.65051339 46.3880667,5.84805804 C46.4058444,5.95587054 46.4147333,6.03667411 46.4147333,6.09046875 C46.0751778,6.05453125 45.7176222,6.03667411 45.3420667,6.03667411 L43.9476222,6.03667411 C44.6985111,6.70118304 45.0738444,7.56301339 45.0738444,8.62238839 C45.0738444,10.0052009 44.5734,11.0873437 43.5720667,11.8683705 C42.5709556,12.6493973 41.2747333,13.0400223 39.6836222,13.0400223 C39.6120667,13.0400223 39.4331778,13.031317 39.1471778,13.0132366 C38.8611778,12.9951562 38.5396222,12.9772991 38.1820667,12.959442 L37.8065111,12.932433 C37.4311778,12.932433 37.1405111,13.0581027 36.9349556,13.309442 C36.7291778,13.5610045 36.6265111,13.8661384 36.6265111,14.2255134 C36.6265111,14.4409152 36.6578444,14.6295312 36.7202889,14.7911384 C36.7831778,14.9527455 36.9127333,15.0962723 37.1091778,15.2221652 C37.3058444,15.3476116 37.6187333,15.4509598 38.0478444,15.5317634 C38.4769556,15.6127902 39.0491778,15.6529687 39.7642889,15.6529687 C39.9607333,15.6529687 40.2916222,15.6440402 40.7562889,15.626183 L41.6680667,15.626183 C42.7049556,15.6440402 43.4874,15.7429241 44.0147333,15.9221652 C44.5422889,16.1018527 44.9756222,16.3534152 45.3151778,16.6766295 C46.0305111,17.3052009 46.3880667,18.1491741 46.3880667,19.2085491 C46.3880667,19.7652455 46.2718444,20.3712723 46.0394,21.0268527 C45.8069556,21.6822098 45.4271778,22.3107812 44.8996222,22.912567 C44.3722889,23.5141295 43.6391778,24.0123437 42.7007333,24.407433 C41.7620667,24.8022991 40.6311778,24.9998437 39.3082889,24.9998437 C38.2891778,24.9998437 37.4087333,24.8786384 36.6667333,24.6362277 C35.9247333,24.393817 35.3302889,24.0795312 34.8834,23.6935937 C34.4365111,23.307433 34.1147333,22.8810937 33.9180667,22.4141295 C33.7214,21.9471652 33.6229556,21.4712723 33.6229556,20.9864509 C33.6229556,20.4297545 33.7349556,19.9404687 33.9582889,19.5185937 C34.1818444,19.0964955 34.4498444,18.7507366 34.7627333,18.481317 C35.0756222,18.2118973 35.3794,18.0009598 35.6745111,17.8482812 C35.9694,17.6958259 36.2509556,17.5746205 36.5191778,17.4846652 C36.5369556,17.466808 36.5549556,17.4576562 36.5729556,17.4576562 C35.8040667,17.2422545 35.2814,16.9371205 35.0040667,16.5420312 C34.7271778,16.1467187 34.5885111,15.7067634 34.5885111,15.2221652 C34.5885111,14.8089955 34.6731778,14.4364509 34.8431778,14.104308 C35.0131778,13.771942 35.2187333,13.5025223 35.4598444,13.2960491 C35.7014,13.0895759 35.9382889,12.9279687 36.1707333,12.8112277 C36.4031778,12.6944866 36.5996222,12.6181473 36.7605111,12.5822098 C35.8669556,12.2409152 35.2098444,11.7427009 34.7896222,11.0873437 C34.3694,10.4317634 34.1594,9.67305804 34.1594,8.81122768 L34.1594,8.81122768 Z M39.4960667,12.1243973 C40.0682889,12.1243973 40.5551778,12.0165848 40.9576222,11.8009598 C41.3598444,11.5857813 41.6727333,11.2982813 41.8960667,10.9391295 C42.1194,10.5799777 42.2805111,10.1985045 42.3787333,9.79426339 C42.4771778,9.39024554 42.5262889,8.98176339 42.5262889,8.56881696 C42.5262889,7.47328125 42.2402889,6.66055804 41.6680667,6.13087054 C41.0960667,5.60118304 40.4167333,5.33622768 39.6300667,5.33622768 C39.0045111,5.33622768 38.4902889,5.46212054 38.0882889,5.71345982 C37.6858444,5.96479911 37.3862889,6.27908482 37.1898444,6.65631696 C36.9931778,7.03332589 36.8634,7.41479911 36.8009556,7.80095982 C36.7382889,8.18712054 36.7071778,8.55073661 36.7071778,8.89180804 C36.7071778,9.96948661 36.9662889,10.7772991 37.4847333,11.3161384 C38.0031778,11.8552009 38.6736222,12.1243973 39.4960667,12.1243973 L39.4960667,12.1243973 Z M39.8714,23.8956027 C41.2122889,23.8956027 42.2627333,23.5677009 43.0225111,22.912567 C43.7822889,22.2567634 44.1622889,21.4534152 44.1622889,20.5016295 C44.1622889,19.9092188 44.0236222,19.4194866 43.7467333,19.0337723 C43.4691778,18.6473884 43.1118444,18.351183 42.6736222,18.1447098 C42.2358444,17.9382366 41.7709556,17.7944866 41.2791778,17.713683 C40.7876222,17.6328795 40.3005111,17.5924777 39.8178444,17.5924777 C39.4780667,17.5924777 39.1071778,17.6147991 38.7049556,17.6596652 C38.3025111,17.7047545 37.8600667,17.8259598 37.3774,18.0235045 C36.8947333,18.2210491 36.4836222,18.5351116 36.1438444,18.9661384 C35.8040667,19.3973884 35.6342889,19.971942 35.6342889,20.6902455 C35.6342889,21.6777455 36.0231778,22.4589955 36.8009556,23.0337723 C37.5787333,23.6083259 38.6020667,23.8956027 39.8714,23.8956027 L39.8714,23.8956027 Z M59.9322889,11.179308 L50.3049556,11.179308 C50.3049556,11.8081027 50.3496222,12.4185937 50.4389556,13.0112277 C50.5282889,13.6038616 50.7251778,14.1694866 51.0291778,14.7081027 C51.3151778,15.175067 51.6325111,15.5567634 51.9809556,15.8529688 C52.3296222,16.1493973 52.6736222,16.3647991 53.0136222,16.4993973 C53.3531778,16.6342188 53.6658444,16.7194866 53.9520667,16.7554241 C54.2380667,16.7911384 54.5154,16.8092188 54.7836222,16.8092188 C55.3911778,16.8092188 55.9411778,16.7284152 56.4327333,16.566808 C56.9242889,16.4052009 57.3398444,16.2078795 57.6798444,15.9741741 C58.0194,15.7409152 58.2965111,15.5116741 58.5109556,15.287567 C58.7256222,15.0630134 58.9042889,14.8427009 59.0474,14.6272991 L59.3594,14.7056473 L59.3594,16.1614509 C58.1485111,17.3610045 56.6107333,18.0752902 54.1934,18.0752902 C52.1554,18.0752902 50.5509556,17.4735045 49.3798444,16.2706027 C48.2089556,15.0672545 47.6234,13.4241741 47.6234,11.3411384 C47.6234,10.3893527 47.7527333,9.50051339 48.0122889,8.67439732 C48.2714,7.84828125 48.6691778,7.12104911 49.2054,6.49247768 C49.7418444,5.86412946 50.4211778,5.37462054 51.2436222,5.02439732 C52.0660667,4.67439732 53.0045111,4.49917411 54.0594,4.49917411 C55.3465111,4.49917411 56.3967333,4.72350446 57.2102889,5.17261161 C58.0240667,5.62171875 58.6227333,6.19627232 59.0069556,6.89649554 C59.3916222,7.59694196 59.6418444,8.30185268 59.7578444,9.01100446 C59.8742889,9.72037946 59.9322889,10.4431473 59.9322889,11.179308 L59.9322889,11.179308 Z M50.3316222,10.048058 L57.2505111,10.048058 C57.2505111,9.63511161 57.2282889,9.20877232 57.1836222,8.76859375 C57.1389556,8.32863839 57.0138444,7.86167411 56.8082889,7.36792411 C56.6025111,6.87417411 56.2760667,6.45207589 55.8294,6.10207589 C55.3825111,5.75185268 54.7836222,5.57685268 54.0327333,5.57685268 C52.9062889,5.57685268 52.0391778,5.97171875 51.4314,6.76189732 C50.8234,7.55207589 50.4569556,8.64738839 50.3316222,10.048058 L50.3316222,10.048058 Z M15.4194,0.189352679 L15.4189556,5.03801339 L18.3058444,5.03801339 L18.3058444,6.11546875 L15.4194,6.11546875 L15.4229556,13.6038616 C15.4229556,14.7710491 15.4185111,15.6239509 15.6778444,16.1627902 C15.9371778,16.7014063 16.4331778,16.9708259 17.1662889,16.9708259 C17.2556222,16.9708259 17.6131778,16.9257366 18.2387333,16.8360045 L18.3998444,16.8092188 L18.3998444,17.5634598 C18.1138444,17.7248438 17.7518444,17.8509598 17.3136222,17.9404688 C16.8756222,18.0304241 16.4780667,18.0752902 16.1202889,18.0752902 C15.4229556,18.0752902 14.8376222,17.9226116 14.3638444,17.6172545 C13.8900667,17.3121205 13.5191778,16.9257366 13.2509556,16.4589955 C13.1258444,16.2435938 13.0318444,15.960558 12.9691778,15.610558 C12.9067333,15.2603348 12.9289556,14.7076563 12.9289556,13.9353348 L12.9291778,6.11546875 L10.7702889,6.11546875 L10.7702889,5.03801339 L12.9291778,5.03801339 L12.9291778,1.31145089 L15.4194,0.189352679 Z" id="Fill-3" fill="#FFFFFF" mask="url(#mask-2)"></path>
                            </g>
                        </g>
                    </g>
                </g>
            </g>
        </g>
    </g>
</svg>