<?xml version="1.0" encoding="utf-8"?>
<!-- Generator: Adobe Illustrator 23.0.3, SVG Export Plug-In . SVG Version: 6.00 Build 0)  -->
<svg version="1.1" id="Layer_1" xmlns="http://www.w3.org/2000/svg" xmlns:xlink="http://www.w3.org/1999/xlink" x="0px" y="0px"
	 viewBox="0 0 157.2 57.9" style="enable-background:new 0 0 157.2 57.9;" xml:space="preserve">
<style type="text/css">
	.st0{fill-rule:evenodd;clip-rule:evenodd;fill:#FEFEFE;}
	.st1{fill-rule:evenodd;clip-rule:evenodd;fill:#FFFFFF;}
	.st2{filter:url(#Adobe_OpacityMaskFilter);}
	.st3{mask:url(#mask-2_1_);fill-rule:evenodd;clip-rule:evenodd;fill:#FFFFFF;}
</style>
<title>Group 3</title>
<desc>Created with Sketch.</desc>
<g id="Desktop">
	<g transform="translate(-128.000000, -18.000000)">
		<g id="Top-Navigation" transform="translate(54.000000, 0.000000)">
			<g id="Group-3" transform="translate(74.000000, 18.000000)">
				<g>
					<g id="Logo">
						<g id="Group-19">
							<polygon id="Fill-1" class="st0" points="63.4,27.8 72,40.8 67.5,25.9 49.8,13.6 							"/>
							<polygon id="Fill-2" class="st0" points="64.2,28 72,40.8 68,26.1 							"/>
							<polygon id="Fill-3" class="st0" points="57.6,9 64.2,22.7 54.8,11 42.1,4.5 							"/>
							<polygon id="Fill-4" class="st0" points="57.3,7.9 64.2,21.6 54.3,9.9 							"/>
							<polygon id="Fill-5" class="st0" points="54.3,31.9 52.3,53.3 44.2,36.2 32.1,26.1 							"/>
							<polygon id="Fill-6" class="st0" points="54.3,31.8 52.3,53.3 44.3,36.1 							"/>
							<polygon id="Fill-7" class="st0" points="66.1,42.7 71.8,56.7 72,40.6 54.3,31.8 							"/>
							<polygon id="Fill-8" class="st0" points="66.5,43.1 71.8,57.9 72,40.8 							"/>
							<polygon id="Fill-9" class="st0" points="28.6,11.3 33.2,26.1 22.6,17 11.1,12.4 							"/>
							<polygon id="Fill-10" class="st0" points="28.4,11.3 33.2,26.1 22.2,17 							"/>
							<polygon id="Fill-11" class="st0" points="32.1,27.2 29.3,46.5 22,34.5 13.3,25 							"/>
							<polygon id="Fill-12" class="st0" points="33.2,26.1 30.1,46.5 22.2,33.8 							"/>
							<polygon id="Fill-13" class="st0" points="50.2,14 54.3,31.8 43.2,19 28.8,11.3 							"/>
							<polygon id="Fill-14" class="st0" points="50.2,13.6 54.3,31.8 43.2,18.7 							"/>
							<polygon id="Fill-15" class="st0" points="34.4,4.7 49.8,13.6 37.5,1.7 17.7,0 							"/>
							<polygon id="Fill-16" class="st0" points="38.3,1.1 49.8,13.6 35.4,4.3 							"/>
							<polygon id="Fill-17" class="st0" points="18.3,0 0,2.8 15.1,4.2 28.8,11.3 							"/>
							<polygon id="Fill-18" class="st0" points="18.6,0 15.5,4.2 28.8,11.3 							"/>
						</g>
					</g>
				</g>
				<g transform="translate(94.000000, 10.000000)">
					<g id="Group-6">
						<path class="st1" d="M13.8,5.2h2.2c0-1,0.2-1.9,0.5-2.8c0.3-0.9,0.7-1.6,1.2-2.3c0.5-0.6,1-1.1,1.6-1.5
							c0.6-0.3,1.2-0.5,1.8-0.5c0.3,0,0.5,0,0.7,0.1v2.2l-0.3,0.1c-0.6-0.2-1.1-0.3-1.5-0.3c-0.5,0-0.8,0.1-1.1,0.3
							c-0.3,0.2-0.5,0.4-0.6,0.6c-0.1,0.2-0.2,0.5-0.2,0.7c0,0.2,0,0.5,0,0.7c0,0.4,0,0.9,0.1,1.5c0.1,0.6,0.2,1,0.2,1.2h2.8v1h-2.7
							V10l-2.3,1l-0.1,0l0-4.8h-2.2V5.2z M6.2,5.7c-1,0-1.7,0.2-2.3,0.7c-0.6,0.5-1,1-1.3,1.6C2.3,8.7,2.2,9.3,2.1,9.8
							C2,10.3,2,10.8,2,11.2c0,1.8,0.4,3.2,1.1,4.2c0.3,0.4,0.7,0.7,1,1l-1.7,0.8c-0.3-0.2-0.6-0.3-0.9-0.6
							c-0.7-0.5-1.2-1.2-1.6-2.1c-0.4-0.9-0.6-2-0.6-3.2c0-2,0.6-3.6,1.8-4.8C2.4,5.3,4,4.7,6,4.7c1.2,0,2.2,0.2,3.1,0.5
							c0.9,0.4,1.6,0.8,2.2,1.5c0.6,0.6,1,1.3,1.2,2.1c0.3,0.8,0.4,1.6,0.4,2.4c0,0.5,0,0.9-0.1,1.4l-2.9,1.3
							c0.2-0.7,0.4-1.6,0.4-2.6c0-0.6-0.1-1.2-0.2-1.8C10,8.8,9.7,8.2,9.5,7.6c-0.3-0.6-0.7-1-1.3-1.4C7.7,5.9,7,5.7,6.2,5.7
							L6.2,5.7z M22.2,5.2h2.2c0-1,0.2-1.9,0.5-2.8s0.7-1.6,1.2-2.3c0.5-0.6,1-1.1,1.6-1.5c0.6-0.3,1.2-0.5,1.8-0.5
							c0.3,0,0.5,0,0.7,0.1v2.2L30,0.5c-0.6-0.2-1.1-0.3-1.5-0.3c-0.5,0-0.8,0.1-1.1,0.3c-0.3,0.2-0.5,0.4-0.6,0.6
							c-0.1,0.2-0.2,0.5-0.2,0.7c0,0.2,0,0.5,0,0.7c0,0.4,0,0.9,0.1,1.5c0.1,0.6,0.2,1,0.2,1.2h2.3l-4.7,2.1l0-1.1h-2.2V5.2z"/>
						<g id="Group-5" transform="translate(4.000000, 14.000000)">
							<g id="Clip-4">
							</g>
							<defs>
								<filter id="Adobe_OpacityMaskFilter" filterUnits="userSpaceOnUse" x="-0.6" y="-1.7" width="59.8" height="24.8">
									<feColorMatrix  type="matrix" values="1 0 0 0 0  0 1 0 0 0  0 0 1 0 0  0 0 0 1 0"/>
								</filter>
							</defs>
							<mask maskUnits="userSpaceOnUse" x="-0.6" y="-1.7" width="59.8" height="24.8" id="mask-2_1_">
								<g class="st2">
									<polygon id="path-1_1_" class="st1" points="-0.6,-1.7 59.2,-1.7 59.2,23.2 -0.6,23.2 									"/>
								</g>
							</mask>
							<path class="st3" d="M27.4,12.1v-3c-1.1,0.2-2,0.4-2.7,0.6s-1.2,0.5-1.6,0.7c-0.3,0.3-0.6,0.6-0.7,0.9
								c-0.1,0.3-0.2,0.7-0.2,1.1c0,0.8,0.2,1.4,0.7,1.7c0.5,0.4,1,0.5,1.6,0.5c0.7,0,1.4-0.2,2-0.7C27.1,13.5,27.4,12.9,27.4,12.1
								L27.4,12.1z M21.4,6h-0.6V4.3c0.6-0.5,1.2-0.9,1.9-1.2c0.7-0.3,1.5-0.5,2.5-0.5c0.6,0,1.3,0.1,1.9,0.3
								c0.6,0.2,1.2,0.5,1.7,0.9c0.4,0.3,0.6,0.7,0.8,1.2c0.2,0.5,0.3,1.1,0.3,1.8v7c0,0.2,0,0.3,0,0.4c0.1,0.4,0.4,0.6,0.8,0.6
								c0.2,0,0.5,0,0.7-0.1l0,0.8c-0.4,0.2-0.7,0.3-1,0.4c-0.3,0.1-0.6,0.1-0.9,0.1c-0.5,0-0.9-0.1-1.3-0.4
								c-0.4-0.3-0.6-0.7-0.8-1.3c-0.6,0.6-1.1,1-1.7,1.4c-0.6,0.3-1.4,0.5-2.3,0.5c-0.7,0-1.2-0.1-1.7-0.3
								c-0.5-0.2-0.9-0.5-1.2-0.9c-0.3-0.4-0.5-0.7-0.6-1.2c-0.1-0.4-0.2-0.8-0.2-1.2c0-0.7,0.1-1.2,0.4-1.7c0.2-0.4,0.6-0.8,1-1.1
								c0.4-0.3,0.8-0.5,1.3-0.6c0.5-0.1,1.1-0.3,1.8-0.5l2.3-0.5c0.4-0.1,0.6-0.2,0.8-0.4c0.1-0.2,0.2-0.5,0.2-0.9
								c0-0.9-0.3-1.6-0.8-2.1c-0.6-0.5-1.3-0.8-2.2-0.8c-0.5,0-1,0.1-1.3,0.2c-0.4,0.1-0.7,0.3-0.9,0.5C22,5,21.8,5.2,21.7,5.4
								C21.6,5.6,21.5,5.8,21.4,6L21.4,6z M7.4,5.8H7C6.9,5.4,6.8,5.1,6.7,4.9C6.5,4.6,6.3,4.4,6,4.1C5.7,4,5.4,3.8,5.1,3.8
								C4.8,3.7,4.5,3.7,4.2,3.7c-0.8,0-1.4,0.2-1.8,0.6C1.9,4.6,1.7,5.1,1.7,5.7c0,0.4,0.1,0.7,0.2,1c0.2,0.3,0.4,0.5,0.6,0.7
								c0.3,0.2,0.5,0.3,0.8,0.4C3.7,7.9,4,8,4.2,8.1C5,8.3,5.7,8.5,6.1,8.6C6.5,8.8,7,9,7.3,9.2c0.4,0.3,0.7,0.6,0.9,1
								c0.2,0.4,0.3,1,0.3,1.6c0,0.5-0.1,1.1-0.3,1.6c-0.2,0.5-0.5,1-0.9,1.4c-0.4,0.4-0.9,0.7-1.6,1c-0.7,0.3-1.4,0.4-2.3,0.4
								c-0.9,0-1.7-0.1-2.4-0.4c-0.7-0.3-1.2-0.5-1.5-0.7l0.6-2.2l0.3-0.1l0,0.1c0.1,0.3,0.3,0.7,0.5,0.9c0.2,0.3,0.5,0.5,0.9,0.8
								c0.6,0.3,1.2,0.5,2,0.5c0.8,0,1.4-0.2,1.9-0.6c0.5-0.4,0.8-0.9,0.8-1.6c0-0.4-0.1-0.7-0.2-0.9c-0.1-0.3-0.3-0.5-0.6-0.6
								c-0.3-0.2-0.6-0.4-1-0.5c-0.4-0.2-1.1-0.4-1.9-0.6c-0.4-0.1-0.7-0.3-1-0.4c-0.3-0.2-0.6-0.4-1-0.7C0.5,8.8,0.2,8.5,0,8.1
								c-0.2-0.4-0.3-0.9-0.3-1.5c0-0.4,0.1-0.9,0.2-1.3C0.1,4.8,0.3,4.4,0.7,4C1,3.6,1.5,3.3,2.1,3c0.6-0.3,1.3-0.4,2.2-0.4
								c0.8,0,1.5,0.1,2,0.3c0.5,0.2,1,0.4,1.5,0.6L7.4,5.8z M33.5,7c0-1.4,0.5-2.5,1.5-3.2s2.2-1.2,3.7-1.2c0.7,0,1.3,0,1.8,0.1
								c0.7,0.1,1.2,0.2,1.5,0.2c0.3,0,0.7,0,1.3,0c0.5,0,0.9,0,1.1,0c0.3,0,0.7,0,1.3-0.1c0,0.1,0,0.1,0,0.2c0,0.2,0,0.7,0,0.9
								c0,0.1,0,0.2,0,0.2c-0.3,0-0.7-0.1-1.1-0.1h-1.4c0.8,0.7,1.1,1.5,1.1,2.6c0,1.4-0.5,2.5-1.5,3.2c-1,0.8-2.3,1.2-3.9,1.2
								c-0.1,0-0.3,0-0.5,0c-0.3,0-0.6,0-1-0.1l-0.4,0c-0.4,0-0.7,0.1-0.9,0.4c-0.2,0.3-0.3,0.6-0.3,0.9c0,0.2,0,0.4,0.1,0.6
								c0.1,0.2,0.2,0.3,0.4,0.4c0.2,0.1,0.5,0.2,0.9,0.3c0.4,0.1,1,0.1,1.7,0.1c0.2,0,0.5,0,1,0H41c1,0,1.8,0.1,2.3,0.3
								c0.5,0.2,1,0.4,1.3,0.8c0.7,0.6,1.1,1.5,1.1,2.5c0,0.6-0.1,1.2-0.3,1.8c-0.2,0.7-0.6,1.3-1.1,1.9c-0.5,0.6-1.3,1.1-2.2,1.5
								c-0.9,0.4-2.1,0.6-3.4,0.6c-1,0-1.9-0.1-2.6-0.4s-1.3-0.6-1.8-0.9c-0.4-0.4-0.8-0.8-1-1.3s-0.3-0.9-0.3-1.4
								c0-0.6,0.1-1,0.3-1.5c0.2-0.4,0.5-0.8,0.8-1c0.3-0.3,0.6-0.5,0.9-0.6c0.3-0.2,0.6-0.3,0.8-0.4c0,0,0,0,0.1,0
								c-0.8-0.2-1.3-0.5-1.6-0.9c-0.3-0.4-0.4-0.8-0.4-1.3c0-0.4,0.1-0.8,0.3-1.1c0.2-0.3,0.4-0.6,0.6-0.8c0.2-0.2,0.5-0.4,0.7-0.5
								s0.4-0.2,0.6-0.2c-0.9-0.3-1.6-0.8-2-1.5C33.7,8.6,33.5,7.8,33.5,7L33.5,7z M38.8,10.3c0.6,0,1.1-0.1,1.5-0.3
								c0.4-0.2,0.7-0.5,0.9-0.9c0.2-0.4,0.4-0.7,0.5-1.1c0.1-0.4,0.1-0.8,0.1-1.2c0-1.1-0.3-1.9-0.9-2.4c-0.6-0.5-1.3-0.8-2-0.8
								c-0.6,0-1.1,0.1-1.5,0.4c-0.4,0.3-0.7,0.6-0.9,0.9c-0.2,0.4-0.3,0.8-0.4,1.1C36,6.3,36,6.7,36,7c0,1.1,0.3,1.9,0.8,2.4
								C37.3,10,38,10.3,38.8,10.3L38.8,10.3z M39.2,22.1c1.3,0,2.4-0.3,3.2-1c0.8-0.7,1.1-1.5,1.1-2.4c0-0.6-0.1-1.1-0.4-1.5
								c-0.3-0.4-0.6-0.7-1.1-0.9c-0.4-0.2-0.9-0.4-1.4-0.4c-0.5-0.1-1-0.1-1.5-0.1c-0.3,0-0.7,0-1.1,0.1c-0.4,0-0.8,0.2-1.3,0.4
								s-0.9,0.5-1.2,0.9c-0.3,0.4-0.5,1-0.5,1.7c0,1,0.4,1.8,1.2,2.3C36.9,21.8,37.9,22.1,39.2,22.1L39.2,22.1z M59.2,9.3h-9.6
								c0,0.6,0,1.2,0.1,1.8c0.1,0.6,0.3,1.2,0.6,1.7c0.3,0.5,0.6,0.8,1,1.1c0.3,0.3,0.7,0.5,1,0.6c0.3,0.1,0.7,0.2,0.9,0.3
								c0.3,0,0.6,0.1,0.8,0.1c0.6,0,1.2-0.1,1.6-0.2c0.5-0.2,0.9-0.4,1.2-0.6c0.3-0.2,0.6-0.5,0.8-0.7c0.2-0.2,0.4-0.4,0.5-0.7
								l0.3,0.1v1.5c-1.2,1.2-2.7,1.9-5.2,1.9c-2,0-3.6-0.6-4.8-1.8c-1.2-1.2-1.8-2.8-1.8-4.9c0-1,0.1-1.8,0.4-2.7
								C47.6,6,48,5.3,48.5,4.6c0.5-0.6,1.2-1.1,2-1.5c0.8-0.3,1.8-0.5,2.8-0.5c1.3,0,2.3,0.2,3.2,0.7c0.8,0.4,1.4,1,1.8,1.7
								c0.4,0.7,0.6,1.4,0.8,2.1C59.2,7.9,59.2,8.6,59.2,9.3L59.2,9.3z M49.6,8.2h6.9c0-0.4,0-0.8-0.1-1.3c0-0.4-0.2-0.9-0.4-1.4
								c-0.2-0.5-0.5-0.9-1-1.3c-0.4-0.4-1-0.5-1.8-0.5c-1.1,0-2,0.4-2.6,1.2C50.1,5.7,49.8,6.8,49.6,8.2L49.6,8.2z M14.7-1.7l0,4.8
								h2.9v1.1h-2.9l0,7.5c0,1.2,0,2,0.3,2.6c0.3,0.5,0.8,0.8,1.5,0.8c0.1,0,0.4,0,1.1-0.1l0.2,0v0.8c-0.3,0.2-0.6,0.3-1.1,0.4
								c-0.4,0.1-0.8,0.1-1.2,0.1c-0.7,0-1.3-0.2-1.8-0.5c-0.5-0.3-0.8-0.7-1.1-1.2c-0.1-0.2-0.2-0.5-0.3-0.8c-0.1-0.4,0-0.9,0-1.7
								l0-7.8h-2.2V3.2h2.2v-3.7L14.7-1.7z"/>
						</g>
					</g>
				</g>
			</g>
		</g>
	</g>
</g>
</svg>
