<?xml version="1.0" encoding="UTF-8"?>
<svg width="30px" height="41px" viewBox="0 0 30 41" version="1.1" xmlns="http://www.w3.org/2000/svg" xmlns:xlink="http://www.w3.org/1999/xlink">
    <!-- Generator: Sketch 55.1 (78136) - https://sketchapp.com -->
    <title>Group 5</title>
    <desc>Created with Sketch.</desc>
    <g id="Desktop" stroke="none" stroke-width="1" fill="none" fill-rule="evenodd">
        <g id="Homepage---People-(all)" transform="translate(-1361.000000, -109.000000)" fill="#000000">
            <g id="Group-5" transform="translate(1361.000000, 101.000000)">
                <g id="Icons/Filter">
                    <path d="M27,21.05 L27,8 L24,8 L24,21.05 L21,21.05 L21,23.95 L24,23.95 L24,37 L27,37 L27,23.95 L30,23.95 L30,21.05 L27,21.05 Z M17,8 L14,8 L14,13.8 L11,13.8 L11,16.7 L14,16.7 L14,37 L17,37 L17,16.7 L20,16.7 L20,13.8 L17,13.8 L17,8 Z M6,21.05 L9,21.05 L9,23.95 L6,23.95 L6,37 L3,37 L3,23.95 L0,23.95 L0,21.05 L3,21.05 L3,8 L6,8 L6,21.05 Z" id="option_bar_settings-[#1401]"></path>
                </g>
                <text id="FILTER" font-family="ProximaNova-Bold, Proxima Nova" font-size="9" font-weight="bold" letter-spacing="0.34001865">
                    <tspan x="1" y="49">FILTER</tspan>
                </text>
            </g>
        </g>
    </g>
</svg>