<?xml version="1.0" encoding="UTF-8"?>
<svg width="36px" height="37px" viewBox="0 0 36 37" version="1.1" xmlns="http://www.w3.org/2000/svg" xmlns:xlink="http://www.w3.org/1999/xlink">
    <!-- Generator: Sketch 55.1 (78136) - https://sketchapp.com -->
    <title>Icons/Filter with Notifications</title>
    <desc>Created with Sketch.</desc>
    <g id="Icons/Filter-with-Notifications" stroke="none" stroke-width="1" fill="none" fill-rule="evenodd">
        <path d="M27,21.05 L27,8 L24,8 L24,21.05 L21,21.05 L21,23.95 L24,23.95 L24,37 L27,37 L27,23.95 L30,23.95 L30,21.05 L27,21.05 Z M17,8 L14,8 L14,13.8 L11,13.8 L11,16.7 L14,16.7 L14,37 L17,37 L17,16.7 L20,16.7 L20,13.8 L17,13.8 L17,8 Z M6,21.05 L9,21.05 L9,23.95 L6,23.95 L6,37 L3,37 L3,23.95 L0,23.95 L0,21.05 L3,21.05 L3,8 L6,8 L6,21.05 Z" id="option_bar_settings-[#1401]" fill="#000000"></path>
        <circle id="Oval" fill="#E02020" cx="32" cy="4" r="4"></circle>
    </g>
</svg>