<?xml version="1.0" encoding="utf-8"?>
<!-- Generator: Adobe Illustrator 23.0.3, SVG Export Plug-In . SVG Version: 6.00 Build 0)  -->
<svg version="1.1" id="Layer_1" xmlns="http://www.w3.org/2000/svg" xmlns:xlink="http://www.w3.org/1999/xlink" x="0px" y="0px"
	 viewBox="0 0 30 39.4" style="enable-background:new 0 0 30 39.4;" xml:space="preserve">
<style type="text/css">
	.st0{fill-rule:evenodd;clip-rule:evenodd;}
	.st1{enable-background:new    ;}
</style>
<title>Group 5</title>
<desc>Created with Sketch.</desc>
<g id="Desktop">
	<g transform="translate(-1361.000000, -109.000000)">
		<g id="Group-5" transform="translate(1361.000000, 101.000000)">
			<g>
				<path class="st0" d="M27,21V8h-3v13h-3V24h3v13h3V24h3V21H27z M17,8h-3v5.8h-3v2.9h3V37h3V16.7h3v-2.9h-3V8z M6,21h3V24H6v13H3
					V24H0V21h3V8h3V21z"/>
			</g>
			<g class="st1">
				<path d="M0.8,47.4v-6H5v1.1h-3v1.3H5v1.1H2.1v2.5H0.8z"/>
				<path d="M6.3,47.4v-6h1.3v6H6.3z"/>
				<path d="M9.1,47.4v-6h1.3v4.9h2.5v1.1H9.1z"/>
				<path d="M14.6,47.4v-4.9h-1.8v-1.1h4.8v1.1h-1.7v4.9H14.6z"/>
				<path d="M18.8,47.4v-6H23v1.1h-3v1.3H23v1.1H20v1.4h3v1.1H18.8z"/>
				<path d="M27.7,47.4l-1.2-2.1h-0.9v2.1h-1.3v-6h2.8c1.3,0,2,0.8,2,1.9c0,1.1-0.7,1.6-1.3,1.8l1.3,2.3H27.7z M27.9,43.4
					c0-0.5-0.4-0.8-0.9-0.8h-1.3v1.6H27C27.5,44.2,27.9,43.9,27.9,43.4z"/>
			</g>
		</g>
	</g>
</g>
</svg>
