<?xml version="1.0" encoding="UTF-8"?>
<svg width="29px" height="9px" viewBox="0 0 29 9" version="1.1" xmlns="http://www.w3.org/2000/svg" xmlns:xlink="http://www.w3.org/1999/xlink">
    <!-- Generator: Sketch 55.1 (78136) - https://sketchapp.com -->
    <title>Icons/LoadMore</title>
    <desc>Created with Sketch.</desc>
    <g id="Icons/LoadMore" stroke="none" stroke-width="1" fill="none" fill-rule="evenodd">
        <path d="M14.5,16 C13.6735,16 13,15.3265 13,14.5 C13,13.6735 13.6735,13 14.5,13 C15.3265,13 16,13.6735 16,14.5 C16,15.3265 15.3265,16 14.5,16 M14.5,10 C12.0145,10 10,12.0145 10,14.5 C10,16.9855 12.0145,19 14.5,19 C16.9855,19 19,16.9855 19,14.5 C19,12.0145 16.9855,10 14.5,10 M14.5,6 C13.6735,6 13,5.3265 13,4.5 C13,3.6735 13.6735,3 14.5,3 C15.3265,3 16,3.6735 16,4.5 C16,5.3265 15.3265,6 14.5,6 M14.5,-1.13686838e-13 C12.0145,-1.13686838e-13 10,2.0145 10,4.5 C10,6.9855 12.0145,9 14.5,9 C16.9855,9 19,6.9855 19,4.5 C19,2.0145 16.9855,-1.13686838e-13 14.5,-1.13686838e-13 M14.5,-7 C15.3265,-7 16,-6.3265 16,-5.5 C16,-4.6735 15.3265,-4 14.5,-4 C13.6735,-4 13,-4.6735 13,-5.5 C13,-6.3265 13.6735,-7 14.5,-7 M14.5,-1 C16.9855,-1 19,-3.0145 19,-5.5 C19,-7.9855 16.9855,-10 14.5,-10 C12.0145,-10 10,-7.9855 10,-5.5 C10,-3.0145 12.0145,-1 14.5,-1" id="menu_option-[#1374]" fill="#000000" transform="translate(14.500000, 4.500000) rotate(-90.000000) translate(-14.500000, -4.500000) "></path>
    </g>
</svg>