<?xml version="1.0" encoding="UTF-8"?>
<svg width="16px" height="23px" viewBox="0 0 16 23" version="1.1" xmlns="http://www.w3.org/2000/svg" xmlns:xlink="http://www.w3.org/1999/xlink">
    <!-- Generator: Sketch 55.1 (78136) - https://sketchapp.com -->
    <title>Icons/Location</title>
    <desc>Created with Sketch.</desc>
    <g id="Symbols" stroke="none" stroke-width="1" fill="none" fill-rule="evenodd">
        <g id="Content/Location" fill="#FFFFFF">
            <g id="Icons/Location">
                <path d="M8,9.86857143 C7.37028571,9.86857143 6.85714286,9.35542857 6.85714286,8.72571429 C6.85714286,8.096 7.37028571,7.58285714 8,7.58285714 C8.62971429,7.58285714 9.14285714,8.096 9.14285714,8.72571429 C9.14285714,9.35542857 8.62971429,9.86857143 8,9.86857143 M8,5.29714286 C6.10628571,5.29714286 4.57142857,6.832 4.57142857,8.72571429 C4.57142857,10.6194286 6.10628571,12.1542857 8,12.1542857 C9.89371429,12.1542857 11.4285714,10.6194286 11.4285714,8.72571429 C11.4285714,6.832 9.89371429,5.29714286 8,5.29714286 M8,19.4285714 C8,19.4285714 2.28571429,11.4285714 2.28571429,8 C2.28571429,4.84914286 4.84914286,2.28571429 8,2.28571429 C11.1508571,2.28571429 13.7142857,4.84914286 13.7142857,8 C13.7142857,11.4285714 8,19.4285714 8,19.4285714 M8,1.38555833e-13 C3.58171429,1.38555833e-13 0,3.58171429 0,8 C0,12.4182857 8,22.8571429 8,22.8571429 C8,22.8571429 16,12.4182857 16,8 C16,3.58171429 12.4182857,1.38555833e-13 8,1.38555833e-13" id="pin_sharp_circle-[#625]"></path>
            </g>
        </g>
    </g>
</svg>