<?xml version="1.0" encoding="UTF-8"?>
<svg width="28px" height="28px" viewBox="0 0 28 28" version="1.1" xmlns="http://www.w3.org/2000/svg" xmlns:xlink="http://www.w3.org/1999/xlink">
    <!-- Generator: Sketch 55.1 (78136) - https://sketchapp.com -->
    <title>Icons/Pen</title>
    <desc>Created with Sketch.</desc>
    <g id="Icons/Pen" stroke="none" stroke-width="1" fill="none" fill-rule="evenodd">
        <path d="M13,12 L13,18 L22,18 L22,15 L16,15 L16,12 L13,12 Z M24,15.5555556 C24,20.2222222 19.962,24.8888889 15,24.8888889 C10.038,24.8888889 6,20.7013333 6,15.5555556 C6,10.4097778 10.038,6.22222222 15,6.22222222 L15,9.33333333 L22.5,4.66666667 L15,0 L15,3.11111111 C8.373,3.11111111 3,8.68311111 3,15.5555556 C3,22.428 8.373,28 15,28 C21.627,28 27,23.3333333 27,15.5555556 L24,15.5555556 Z" id="arrow_repeat-[#237]" fill="#000000"></path>
    </g>
</svg>