<?xml version="1.0" encoding="UTF-8"?>
<svg width="30px" height="30px" viewBox="0 0 30 30" version="1.1" xmlns="http://www.w3.org/2000/svg" xmlns:xlink="http://www.w3.org/1999/xlink">
    <!-- Generator: Sketch 55.1 (78136) - https://sketchapp.com -->
    <title>Icons/Spotify</title>
    <desc>Created with Sketch.</desc>
    <g id="Icons/Spotify" stroke="none" stroke-width="1" fill="none" fill-rule="evenodd">
        <g id="Play-Button-Copy" transform="translate(15.000000, 15.000000) rotate(-90.000000) translate(-15.000000, -15.000000) " fill="#FFFFFF" fill-opacity="0.5">
            <path d="M30,14.9993543 C30,23.2842567 23.2842567,30 15.0006457,30 C6.71574325,30 2.84217094e-14,23.2842567 2.84217094e-14,14.9993543 C2.84217094e-14,6.71574325 6.71574325,0 15.0006457,0 C23.2842567,0 30,6.71574325 30,14.9993543 Z" id="Stroke-3" transform="translate(15.000000, 15.000000) rotate(-270.000000) translate(-15.000000, -15.000000) "></path>
        </g>
        <g id="Spotify-Copy-2" transform="translate(3.000000, 3.000000)">
            <path d="M11.9999284,4.03992929e-14 C5.37269161,4.03992929e-14 0,5.37254832 0,11.9997851 C0,18.6277383 5.37269161,24 11.9999284,24 C18.6274517,24 24,18.6277383 24,11.9997851 C24,5.37254832 18.6274517,4.03992929e-14 11.9999284,4.03992929e-14" id="Spotify" fill="#1ED760"></path>
            <path d="M16.8952524,16.6710904 C16.6897761,16.995209 16.2511082,17.0967259 15.9153832,16.8992079 C13.2305389,15.3207711 9.8511712,14.9643456 5.87134862,15.8387305 C5.48783844,15.9233061 5.10555702,15.692168 5.01817842,15.3233976 C4.93025369,14.954496 5.16972569,14.5867763 5.55405504,14.5025947 C9.90933259,13.5449475 13.6451777,13.9570563 16.658784,15.7284146 C16.9947821,15.9258013 17.1005921,16.3480223 16.8952524,16.6710904" id="Path" fill="#FFFFFF"></path>
            <path d="M18.8672991,13.554475 C18.6068816,13.9939206 18.0544225,14.1317747 17.6324471,13.8619296 C14.538236,11.8837807 9.81964651,11.310628 6.15881416,12.4663715 C5.68417779,12.6155228 5.1827297,12.3372406 5.03849634,11.8443121 C4.89550044,11.3506686 5.16320526,10.8301407 5.63715414,10.6799885 C9.81909653,9.3600785 15.0179597,9.99929817 18.5719576,12.2708876 C18.993933,12.5411616 19.1267542,13.1160303 18.8672991,13.554475" id="Path" fill="#FFFFFF"></path>
            <path d="M5.44111278,8.61036395 C4.85094939,8.77222296 4.22699312,8.47118582 4.04833288,7.93792738 C3.86953006,7.40428234 4.20218316,6.84073977 4.79263172,6.67862302 C9.01061034,5.5215115 16.0221336,5.74496972 20.4531357,8.12220954 C20.9839833,8.40700924 21.1579382,9.02648079 20.8433935,9.50535666 C20.5285636,9.98500574 19.8425825,10.1431276 19.3131607,9.85832787 C15.4641946,7.79243469 9.11541104,7.60248231 5.44111278,8.61036395 Z" id="Path" fill="#FFFFFF"></path>
        </g>
    </g>
</svg>