<?xml version="1.0" encoding="UTF-8"?>
<svg width="20px" height="20px" viewBox="0 0 20 20" version="1.1" xmlns="http://www.w3.org/2000/svg" xmlns:xlink="http://www.w3.org/1999/xlink">
    <!-- Generator: Sketch 55.1 (78136) - https://sketchapp.com -->
    <title>stats [#1366]</title>
    <desc>Created with Sketch.</desc>
    <g id="Symbols" stroke="none" stroke-width="1" fill="none" fill-rule="evenodd">
        <g id="Icons/Level" fill="#000000">
            <path d="M16,18 L18,18 L18,2 L16,2 L16,18 Z M14,20 L20,20 L20,0 L14,0 L14,20 Z M9,18 L11,18 L11,6 L9,6 L9,18 Z M7,20 L13,20 L13,4 L7,4 L7,20 Z M2,18 L4,18 L4,12 L2,12 L2,18 Z M0,20 L6,20 L6,10 L0,10 L0,20 Z" id="stats-[#1366]"></path>
        </g>
    </g>
</svg>