<?xml version="1.0" encoding="UTF-8"?>
<svg width="30px" height="30px" viewBox="0 0 30 30" version="1.1" xmlns="http://www.w3.org/2000/svg" xmlns:xlink="http://www.w3.org/1999/xlink">
    <!-- Generator: Sketch 55.1 (78136) - https://sketchapp.com -->
    <title>Icons/Youtube</title>
    <desc>Created with Sketch.</desc>
    <g id="Icons/Youtube" stroke="none" stroke-width="1" fill="none" fill-rule="evenodd">
        <g id="Play-Button" transform="translate(15.000000, 15.000000) rotate(-90.000000) translate(-15.000000, -15.000000) " fill="#FFFFFF" fill-opacity="0.5">
            <path d="M30,14.9993543 C30,23.2842567 23.2842567,30 15.0006457,30 C6.71574325,30 0,23.2842567 0,14.9993543 C0,6.71574325 6.71574325,0 15.0006457,0 C23.2842567,0 30,6.71574325 30,14.9993543 Z" id="Stroke-3" transform="translate(15.000000, 15.000000) rotate(-270.000000) translate(-15.000000, -15.000000) "></path>
        </g>
        <g id="Youtube" transform="translate(3.000000, 3.000000)">
            <path d="M0,11.8032787 C0,5.28450755 5.29214412,0 11.8203354,0 C18.3485268,0 23.6406709,5.28450755 23.6406709,11.8032787 C23.6406709,18.3220498 18.3485268,23.6065574 11.8203354,23.6065574 C5.29214412,23.6065574 0,18.3220498 0,11.8032787 Z" id="back" fill="#CE1312"></path>
            <path d="M17.972459,9.42741457 C17.972459,9.42741457 17.8493115,8.54087071 17.472,8.15046976 C16.9931803,7.63784236 16.4565246,7.63543 16.210623,7.60567751 C14.4487869,7.47540984 11.8060328,7.47540984 11.8060328,7.47540984 L11.8005246,7.47540984 C11.8005246,7.47540984 9.15777049,7.47540984 7.39593443,7.60567751 C7.14963934,7.63543 6.61337705,7.63784236 6.13416393,8.15046976 C5.75685246,8.54087071 5.63409836,9.42741457 5.63409836,9.42741457 C5.63409836,9.42741457 5.50819672,10.4687518 5.50819672,11.509687 L5.50819672,12.4858904 C5.50819672,13.5272276 5.63409836,14.5681628 5.63409836,14.5681628 C5.63409836,14.5681628 5.75685246,15.4547066 6.13416393,15.8451076 C6.61337705,16.357735 7.2424918,16.3416525 7.52262295,16.3951266 C8.52983607,16.4940336 11.8032787,16.5245902 11.8032787,16.5245902 C11.8032787,16.5245902 14.4487869,16.5205696 16.210623,16.3903019 C16.4565246,16.3601473 16.9931803,16.357735 17.472,15.8451076 C17.8493115,15.4547066 17.972459,14.5681628 17.972459,14.5681628 C17.972459,14.5681628 18.0983607,13.5272276 18.0983607,12.4858904 L18.0983607,11.509687 C18.0983607,10.4687518 17.972459,9.42741457 17.972459,9.42741457 L17.972459,9.42741457 Z" fill="#FFFFFF"></path>
            <polygon id="Path" fill="#CE1312" points="10.5033443 13.668753 10.5029508 10.0538251 13.9046557 11.867521"></polygon>
        </g>
    </g>
</svg>