<?xml version="1.0" encoding="UTF-8"?>
<svg width="108px" height="107px" viewBox="0 0 108 107" version="1.1" xmlns="http://www.w3.org/2000/svg" xmlns:xlink="http://www.w3.org/1999/xlink">
    <!-- Generator: Sketch 55.1 (78136) - https://sketchapp.com -->
    <title>Icons/YoutubePlay</title>
    <desc>Created with Sketch.</desc>
    <g id="Icons/YoutubePlay" stroke="none" stroke-width="1" fill="none" fill-rule="evenodd">
        <g id="Play-Button" transform="translate(54.000000, 53.500000) rotate(-90.000000) translate(-54.000000, -53.500000) translate(1.000000, 0.000000)" fill="#FFFFFF">
            <path d="M106,53.4977184 C106,82.7710405 82.2710405,106.5 53.0022816,106.5 C23.7289595,106.5 0,82.7710405 0,53.4977184 C0,24.2289595 23.7289595,0.5 53.0022816,0.5 C82.2710405,0.5 106,24.2289595 106,53.4977184 Z" id="Stroke-3" fill-opacity="0.5" transform="translate(53.000000, 53.500000) rotate(-270.000000) translate(-53.000000, -53.500000) "></path>
            <polygon id="Stroke-2" stroke="#FFFFFF" stroke-width="1.75" transform="translate(53.000000, 59.500000) rotate(-90.000000) translate(-53.000000, -59.500000) " points="61 74.5 53.0018917 67 45 59.4964522 61 44.5"></polygon>
        </g>
        <g id="Youtube" transform="translate(12.000000, 12.000000)">
            <path d="M0,41.3114754 C0,18.4957764 18.5225044,0 41.3711741,0 C64.2198437,0 82.7423481,18.4957764 82.7423481,41.3114754 C82.7423481,64.1271744 64.2198437,82.6229508 41.3711741,82.6229508 C18.5225044,82.6229508 0,64.1271744 0,41.3114754 Z" id="back" fill="#CE1312"></path>
            <path d="M62.9036066,32.995951 C62.9036066,32.995951 62.4725902,29.8930475 61.152,28.5266442 C59.4761311,26.7324483 57.5978361,26.724005 56.7371803,26.6198713 C50.5707541,26.1639344 41.3211148,26.1639344 41.3211148,26.1639344 L41.3018361,26.1639344 C41.3018361,26.1639344 32.0521967,26.1639344 25.8857705,26.6198713 C25.0237377,26.724005 23.1468197,26.7324483 21.4695738,28.5266442 C20.1489836,29.8930475 19.7193443,32.995951 19.7193443,32.995951 C19.7193443,32.995951 19.2786885,36.6406313 19.2786885,40.2839044 L19.2786885,43.7006163 C19.2786885,47.3452966 19.7193443,50.9885697 19.7193443,50.9885697 C19.7193443,50.9885697 20.1489836,54.0914732 21.4695738,55.4578765 C23.1468197,57.2520724 25.3487213,57.1957839 26.3291803,57.3829432 C29.8544262,57.7291174 41.3114754,57.8360656 41.3114754,57.8360656 C41.3114754,57.8360656 50.5707541,57.8219934 56.7371803,57.3660566 C57.5978361,57.2605157 59.4761311,57.2520724 61.152,55.4578765 C62.4725902,54.0914732 62.9036066,50.9885697 62.9036066,50.9885697 C62.9036066,50.9885697 63.3442623,47.3452966 63.3442623,43.7006163 L63.3442623,40.2839044 C63.3442623,36.6406313 62.9036066,32.995951 62.9036066,32.995951 L62.9036066,32.995951 Z" fill="#FFFFFF"></path>
            <polygon id="Path" fill="#CE1312" points="36.7617049 47.8406354 36.7603279 35.188388 48.6662951 41.5363235"></polygon>
        </g>
    </g>
</svg>