<?xml version="1.0" encoding="utf-8"?>
<!-- Generator: Adobe Illustrator 23.0.3, SVG Export Plug-In . SVG Version: 6.00 Build 0)  -->
<svg version="1.1" id="Layer_1" xmlns="http://www.w3.org/2000/svg" xmlns:xlink="http://www.w3.org/1999/xlink" x="0px" y="0px"
	 viewBox="0 0 20 20" style="enable-background:new 0 0 20 20;" xml:space="preserve">
<style type="text/css">
	.st0{fill-rule:evenodd;clip-rule:evenodd;}
</style>
<path class="st0" d="M5.87,0.12C4.24,0.2,2.83,0.59,1.69,1.73C0.55,2.87,0.16,4.29,0.08,5.9C0.04,6.9-0.23,14.5,0.54,16.49
	c0.52,1.34,1.55,2.38,2.91,2.9c0.63,0.25,1.36,0.41,2.41,0.46c8.86,0.4,12.15,0.18,13.53-3.36c0.25-0.63,0.41-1.35,0.46-2.41
	c0.4-8.88-0.07-10.81-1.61-12.35C17.03,0.51,15.59-0.32,5.87,0.12 M5.95,18.07c-0.97-0.04-1.5-0.21-1.85-0.34
	c-0.88-0.34-1.55-1-1.89-1.88c-0.59-1.51-0.4-8.7-0.34-9.87C1.92,4.84,2.16,3.8,2.96,2.99c1-0.99,2.28-1.48,11.03-1.08
	c1.14,0.05,2.19,0.28,2.99,1.08c1,0.99,1.49,2.29,1.09,11.01c-0.04,0.97-0.21,1.49-0.34,1.84C16.83,18.15,14.76,18.47,5.95,18.07
	 M14.09,4.69c0,0.66,0.53,1.19,1.19,1.19c0.66,0,1.2-0.53,1.2-1.19s-0.54-1.19-1.2-1.19C14.62,3.5,14.09,4.03,14.09,4.69 M4.86,9.99
	c0,2.81,2.29,5.1,5.11,5.1c2.82,0,5.11-2.28,5.11-5.1s-2.29-5.1-5.11-5.1C7.15,4.89,4.86,7.17,4.86,9.99 M6.66,9.99
	c0-1.83,1.48-3.31,3.32-3.31c1.83,0,3.32,1.48,3.32,3.31c0,1.83-1.48,3.31-3.32,3.31C8.14,13.3,6.66,11.82,6.66,9.99"/>
</svg>
