<svg xmlns="http://www.w3.org/2000/svg" viewBox="0 0 35 35"><defs><style>.cls-1{fill-rule:evenodd;}</style></defs><title>Artboard 3</title><g id="Whatsapp"><path class="cls-1" d="M27.69,24.71c-.43,1.2-2.1,2.18-3.44,2.47-.91.2-2.11.35-6.13-1.32C13.6,24,7.33,17.33,7.33,12.89,7.33,10.63,8.63,8,10.91,8c1.1,0,1.34,0,1.7.89s1.45,3.53,1.57,3.79c.51,1.05-.51,1.67-1.25,2.59a.81.81,0,0,0-.21,1.09,15.85,15.85,0,0,0,2.84,3.53,13,13,0,0,0,4.1,2.53,1.12,1.12,0,0,0,1.24-.2,22.65,22.65,0,0,0,1.37-1.81A1,1,0,0,1,23.52,20,36.48,36.48,0,0,1,28,22.28a4.27,4.27,0,0,1-.29,2.43M17.5,0h0A17.49,17.49,0,0,0,3.33,27.76l-2.18,6.5,6.73-2.15A17.5,17.5,0,1,0,17.5,0"/></g></svg>