<?xml version="1.0" encoding="utf-8"?>
<!-- Generator: Adobe Illustrator 23.0.3, SVG Export Plug-In . SVG Version: 6.00 Build 0)  -->
<svg version="1.1" id="Layer_1" xmlns="http://www.w3.org/2000/svg" xmlns:xlink="http://www.w3.org/1999/xlink" x="0px" y="0px"
	 viewBox="0 0 20 14" style="enable-background:new 0 0 20 14;" xml:space="preserve">
<style type="text/css">
	.st0{fill-rule:evenodd;clip-rule:evenodd;}
</style>
<path class="st0" d="M7.99,9.59V3.97c1.99,0.94,3.54,1.84,5.36,2.82C11.84,7.63,9.98,8.56,7.99,9.59 M19.09,1.18
	c-0.34-0.45-0.93-0.8-1.55-0.92c-1.83-0.35-13.27-0.35-15.1,0c-0.5,0.09-0.95,0.32-1.33,0.67C-0.5,2.43,0,10.45,0.39,11.75
	c0.16,0.56,0.37,0.97,0.64,1.23c0.34,0.35,0.81,0.59,1.35,0.7c1.51,0.31,9.28,0.49,15.12,0.05c0.54-0.09,1.01-0.34,1.39-0.71
	C20.39,11.53,20.28,3.06,19.09,1.18"/>
</svg>
