<?xml version="1.0" encoding="UTF-8"?>
<svg width="72px" height="58px" viewBox="0 0 72 58" version="1.1" xmlns="http://www.w3.org/2000/svg" xmlns:xlink="http://www.w3.org/1999/xlink">
    <!-- Generator: Sketch 55.1 (78136) - https://sketchapp.com -->
    <title>Logo/Esplanade/Black</title>
    <desc>Created with Sketch.</desc>
    <g id="Logo/Esplanade/Black" stroke="none" stroke-width="1" fill="none" fill-rule="evenodd">
        <g id="Logo" fill="#000000">
            <g id="Group-19">
                <polygon id="Fill-1" points="63.3904902 28.392023 72 41.4134615 67.504354 26.4969802 49.8461538 14.1826923"></polygon>
                <polygon id="Fill-3" points="57.6355171 9.53722811 64.2461538 23.2596154 54.7728299 11.556434 42.0923077 5.10576923"></polygon>
                <polygon id="Fill-5" points="54.2769231 32.4577509 52.2530799 53.8942308 44.1947317 36.8000845 32.1230769 26.6634615"></polygon>
                <polygon id="Fill-7" points="66.1245481 43.2917812 71.8006602 57.2980769 72 41.1645428 54.2769231 32.3365385"></polygon>
                <polygon id="Fill-9" points="28.6193483 11.9134615 33.2307692 26.6634615 22.6203539 17.5625933 11.0769231 12.9798644"></polygon>
                <polygon id="Fill-11" points="32.1230769 27.7687744 29.2821631 47.0865385 22.0430252 35.017648 13.2923077 25.5288462"></polygon>
                <polygon id="Fill-13" points="50.2014811 14.6013608 54.2769231 32.3365385 43.2384419 19.5490873 28.8 11.9134615"></polygon>
                <polygon id="Fill-15" points="34.4272721 5.27065135 49.8461538 14.1826923 37.4801526 2.30321559 17.7230769 0.567307692"></polygon>
                <polygon id="Fill-17" points="18.3298057 0.567307692 0 3.31962657 15.1485119 4.75605744 28.8 11.9134615"></polygon>
            </g>
        </g>
    </g>
</svg>